/* XPM */ 
static char * db2clp_xpm[] = {
"64 64 504 2",
"  	c None",
"! 	c black",
"# 	c #9C9CA9",
"$ 	c #6B6B89",
"% 	c #323265",
"& 	c #6767A6",
"' 	c #666699",
"( 	c #4E4E77",
") 	c white",
"* 	c #B5B5C7",
"+ 	c #FEFEFF",
", 	c #FDFEFF",
"- 	c #FCFDFF",
". 	c #FCFDFE",
"0 	c #FCFCFE",
"1 	c #FBFCFE",
"2 	c #FAFAFE",
"3 	c #FAFAFD",
"4 	c #F9FAFD",
"5 	c #F8F9FD",
"6 	c #F8F8FC",
"7 	c #F7F7FC",
"8 	c #F7F7FB",
"9 	c #F5F5FC",
": 	c #F5F5FB",
"; 	c #F4F4FA",
"< 	c #F3F4FB",
"= 	c #F2F2FA",
"> 	c #F2F1F9",
"? 	c #F1F1F9",
"@ 	c #F0F0F9",
"A 	c #EFEFF9",
"B 	c #EDEDF8",
"C 	c #ECEDF8",
"D 	c #ECECF7",
"E 	c #EBEBF6",
"F 	c #E9EAF6",
"G 	c #E9E8F5",
"H 	c #E8E8F5",
"I 	c #E7E6F5",
"J 	c #E6E6F4",
"K 	c #E5E4F4",
"L 	c #E3E3F3",
"M 	c #E2E3F3",
"N 	c #E2E2F3",
"O 	c #E1E1F2",
"P 	c #DFE0F2",
"Q 	c #DFDFF1",
"R 	c #DDDDF1",
"S 	c #DCDCF0",
"T 	c #DCDBF0",
"U 	c #DADAEF",
"V 	c #D9D9EF",
"W 	c #D8D8EE",
"X 	c #D7D7EE",
"Y 	c #D6D6ED",
"Z 	c #D5D4EC",
"[ 	c #D3D4ED",
"] 	c #D2D3EB",
"^ 	c #D2D2EC",
"_ 	c #D1D0EB",
"` 	c #CFD0EA",
"a 	c #CECEEA",
"b 	c #CECDE9",
"c 	c #CDCCE9",
"d 	c #CCCBE8",
"e 	c #CBCAE8",
"f 	c #AEAFBF",
"g 	c #2B2B56",
"h 	c #FEFDFE",
"i 	c #FDFDFF",
"j 	c #FDFCFE",
"k 	c #FBFBFE",
"l 	c #F8F7FC",
"m 	c #F6F6FC",
"n 	c #F6F6FB",
"o 	c #F4F5FB",
"p 	c #F3F3FB",
"q 	c #F3F3FA",
"r 	c #F1F2FA",
"s 	c #EEEEF8",
"t 	c #EEEDF8",
"u 	c #EBEBF7",
"v 	c #EAEBF6",
"w 	c #E9E9F6",
"x 	c #E7E7F5",
"y 	c #E6E7F4",
"z 	c #E5E5F4",
"{ 	c #E4E4F4",
"| 	c #E0E0F2",
"} 	c #DEDDF1",
"~ 	c #DCDDF0",
" !	c #DBDCF0",
"!!	c #DADBEF",
"#!	c #D9DAEF",
"$!	c #D5D5ED",
"%!	c #D4D4EC",
"&!	c #D3D3EC",
"'!	c #D2D2EB",
"(!	c #D0D1EB",
")!	c #D0D0EB",
"*!	c #CFCFEA",
"+!	c #CECDEA",
",!	c #CCCDE9",
"-!	c #CCCCE9",
".!	c #CBCBE8",
"0!	c #CACAE8",
"1!	c #ADADBE",
"2!	c #FCFBFE",
"3!	c #FAFBFE",
"4!	c #F9F9FD",
"5!	c #F7F8FC",
"6!	c #F7F6FC",
"7!	c #F4F5FA",
"8!	c #F2F2F9",
"9!	c #F1F2F9",
":!	c #F0F1F9",
";!	c #EBECF7",
"<!	c #E8E9F6",
"=!	c #E8E7F5",
">!	c #E6E5F4",
"?!	c #E5E4F3",
"@!	c #E4E3F3",
"A!	c #E3E3F2",
"B!	c #E1E2F3",
"C!	c #E0E1F2",
"D!	c #DEDEF0",
"E!	c #DDDDF0",
"F!	c #DBDBF0",
"G!	c #D6D7ED",
"H!	c #D5D6EE",
"I!	c #D4D3EC",
"J!	c #D2D1EB",
"K!	c #CBCBE9",
"L!	c #CAC9E8",
"M!	c #ABAABD",
"N!	c #FEFDFF",
"O!	c #FDFDFE",
"P!	c #FCFCFF",
"Q!	c #FBFAFE",
"R!	c #F5F5FA",
"S!	c #F5F4FB",
"T!	c #EFEFF8",
"U!	c #EAEAF6",
"V!	c #E9E9F5",
"W!	c #E8E8F6",
"X!	c #E7E7F4",
"Y!	c #E5E5F3",
"Z!	c #E3E4F4",
"[!	c #E1E0F2",
"]!	c #E0DFF2",
"^!	c #DFDEF1",
"_!	c #DEDDF0",
"`!	c #DDDCF0",
"a!	c #DCDBEF",
"b!	c #DADAF0",
"c!	c #D7D6ED",
"d!	c #D4D5EC",
"e!	c #D3D4EC",
"f!	c #D3D3EB",
"g!	c #D1D2EB",
"h!	c #D1D1EB",
"i!	c #CFD0EB",
"j!	c #CDCCEA",
"k!	c #C9C9E8",
"l!	c #C8C8E8",
"m!	c #A9A9BD",
"n!	c #F9F9FC",
"o!	c #F8F9FC",
"p!	c #F4F4FB",
"q!	c #F1F1FA",
"r!	c #F1F0F9",
"s!	c #EFEEF8",
"t!	c #EDEEF7",
"u!	c #ECEDF7",
"v!	c #ECEBF7",
"w!	c #EAEBF7",
"x!	c #E0E0F1",
"y!	c #D9D9EE",
"z!	c #D8D9EE",
"{!	c #D7D8ED",
"|!	c #D4D4ED",
"}!	c #D0D0EA",
"~!	c #CECFEA",
" #	c #CDCEE9",
"!#	c #CDCDE9",
"##	c #C8C8E7",
"$#	c #A7A7BC",
"%#	c #FCFBFD",
"&#	c #FAFBFD",
"'#	c #FAF9FD",
"(#	c #F5F6FB",
")#	c #EDEDF7",
"*#	c #EBEAF6",
"+#	c #E7E8F5",
",#	c #E4E3F4",
"-#	c #E2E3F2",
".#	c #DEDEF1",
"0#	c #DBDBEF",
"1#	c #D6D7EE",
"2#	c #CFCFEB",
"3#	c #CDCDEA",
"4#	c #CACAE9",
"5#	c #CAC9E7",
"6#	c #C7C7E7",
"7#	c #A6A6BB",
"8#	c #F8F8FD",
"9#	c #F6F7FC",
":#	c #F6F5FC",
";#	c #F4F3FA",
"<#	c #F2F3FA",
"=#	c #EFF0F9",
">#	c #E4E4F3",
"?#	c #E3E2F3",
"@#	c #E2E1F3",
"A#	c #D6D6EE",
"B#	c #D5D5EC",
"C#	c #D0CFEA",
"D#	c #CBCCE9",
"E#	c #C9C8E7",
"F#	c #C7C6E7",
"G#	c #A3A4BA",
"H#	c #DCDCE8",
"I#	c #C4C4D4",
"J#	c #C3C3D4",
"K#	c #EAEAF5",
"L#	c #E6E6F5",
"M#	c #D9D8EE",
"N#	c #D7D6EE",
"O#	c #CBCCE8",
"P#	c #C9C9E7",
"Q#	c #C7C7E6",
"R#	c #C6C6E6",
"S#	c #A2A2BA",
"T#	c #AAAAC1",
"U#	c #303060",
"V#	c #CDCDDC",
"W#	c #EEEFF8",
"X#	c #EDEEF8",
"Y#	c #EAE9F6",
"Z#	c #E8E9F5",
"[#	c #E6E7F5",
"]#	c #E4E5F4",
"^#	c #E3E4F3",
"_#	c #E1E1F3",
"`#	c #DFE0F1",
"a#	c #DAD9EF",
"b#	c #D7D8EE",
"c#	c #D5D4ED",
"d#	c #C9C8E8",
"e#	c #C7C8E7",
"f#	c #C6C6E7",
"g#	c #A0A0B9",
"h#	c #F9F8FD",
"i#	c #E8E8F1",
"j#	c #3C3C69",
"k#	c #8484A3",
"l#	c #EFF0F8",
"m#	c #EEEEF7",
"n#	c #EAEAF7",
"o#	c #DEDFF1",
"p#	c #DDDEF0",
"q#	c #D3D2EC",
"r#	c #C9CAE8",
"s#	c #C5C5E6",
"t#	c #9E9FB8",
"u#	c #797999",
"v#	c #3B3B69",
"w#	c #ECECF6",
"x#	c #EBEAF7",
"y#	c #E5E6F4",
"z#	c #DBDAEF",
"{#	c #D8D8ED",
"|#	c #D5D6ED",
"}#	c #CACBE9",
"~#	c #C4C5E5",
" $	c #9E9EB7",
"!$	c #F6F5FB",
"#$	c #C1C1D3",
"$$	c #A8A8BF",
"%$	c #EFEEF9",
"&$	c #E1E0F1",
"'$	c #DFDFF2",
"($	c #D0D1EA",
")$	c #D0CFEB",
"*$	c #CCCCE8",
"+$	c #C8C8E6",
",$	c #C7C6E6",
"-$	c #C5C4E5",
".$	c #C4C4E5",
"0$	c #9B9CB6",
"1$	c #F9F8FC",
"2$	c #474773",
"3$	c #6B6B8F",
"4$	c #E2E2F2",
"5$	c #E0DFF1",
"6$	c #D8D8EF",
"7$	c #D4D5ED",
"8$	c #D2D1EC",
"9$	c #CFCEEA",
":$	c #CACBE8",
";$	c #C5C4E6",
"<$	c #C3C3E5",
"=$	c #9A9AB6",
">$	c #9090AC",
"?$	c #D5D5E4",
"@$	c #ECECF8",
"A$	c #DADBF0",
"B$	c #C2C3E5",
"C$	c #9998B6",
"D$	c #FAF9FC",
"E$	c #D7D7E6",
"F$	c #8E8EAC",
"G$	c #D2D3EC",
"H$	c #CACAE7",
"I$	c #C8C9E8",
"J$	c #C5C6E6",
"K$	c #C2C2E5",
"L$	c #9797B5",
"M$	c #616186",
"N$	c #CFCEDE",
"O$	c #F2F1FA",
"P$	c #474772",
"Q$	c #DBDCEF",
"R$	c #D1D1EC",
"S$	c #C6C7E7",
"T$	c #C4C4E6",
"U$	c #C1C2E4",
"V$	c #9696B5",
"W$	c #C4C4D5",
"X$	c #6C6C90",
"Y$	c #A6A6BF",
"Z$	c #BCBBD0",
"[$	c #D7D7ED",
"]$	c #C5C5E5",
"^$	c #C4C5E6",
"_$	c #C4C3E5",
"`$	c #C1C1E4",
"a$	c #9595B4",
"b$	c #B7B8CA",
"c$	c #606086",
"d$	c #757598",
"e$	c #DCDDF1",
"f$	c #CDCEEA",
"g$	c #CBCAE9",
"h$	c #C8C9E7",
"i$	c #C3C3E4",
"j$	c #C1C0E4",
"k$	c #9495B3",
"l$	c #E9E9F1",
"m$	c #B5B4CA",
"n$	c #F0F0F8",
"o$	c #8282A2",
"p$	c #DCDCEC",
"q$	c #DDDEF1",
"r$	c #DAD9EE",
"s$	c #CECEE9",
"t$	c #C2C2E4",
"u$	c #C0C0E4",
"v$	c #9393B4",
"w$	c #E8E8F0",
"x$	c #C2C2D4",
"y$	c #CDCEDD",
"z$	c #C8C8DB",
"{$	c #A3A2BD",
"|$	c #D8D9EF",
"}$	c #9393B3",
"~$	c #F0EFF9",
" %	c #52527B",
"!%	c #E2E1F2",
"#%	c #CCCBE9",
"$%	c #C2C1E4",
"%%	c #BFBFE3",
"&%	c #F6F7FB",
"'%	c #F4F3FB",
"(%	c #EEEDF7",
")%	c #9798B4",
"*%	c #CECEE1",
"+%	c #C8C7E7",
",%	c #C6C5E6",
"-%	c #C0BFE3",
".%	c #BEBFE3",
"0%	c #F7F6FB",
"1%	c #7F7EA0",
"2%	c #D6D5ED",
"3%	c #C0C1E4",
"4%	c #BEBEE3",
"5%	c #E8E7F6",
"6%	c #747497",
"7%	c #CFCEE9",
"8%	c #C6C7E6",
"9%	c #C2C1E5",
":%	c #C0C0E3",
";%	c #BFBEE3",
"<%	c #BDBEE2",
"=%	c #EDECF7",
">%	c #ACADC6",
"?%	c #ABAAC4",
"@%	c #D9D8EF",
"A%	c #CCCDEA",
"B%	c #BFBFE2",
"C%	c #BEBDE2",
"D%	c #464672",
"E%	c #67678D",
"F%	c #DCDCEF",
"G%	c #BFC0E4",
"H%	c #BEBEE2",
"I%	c #BDBDE2",
"J%	c #D8D8E6",
"K%	c #9B9BB5",
"L%	c #CACADB",
"M%	c #8989A9",
"N%	c #D5D5E9",
"O%	c #D3D3ED",
"P%	c #C1C1E5",
"Q%	c #C1C1E3",
"R%	c #BDBCE2",
"S%	c #A6A5BE",
"T%	c #ECEBF6",
"U%	c #E3E3F4",
"V%	c #CDCCE0",
"W%	c #9292B1",
"X%	c #C3C4E6",
"Y%	c #BCBCE2",
"Z%	c #9C9BB6",
"[%	c #5E5E85",
"]%	c #5B5B84",
"^%	c #454572",
"_%	c #D3D2EB",
"`%	c #BCBDE2",
"a%	c #BBBCE1",
"b%	c #B2B3C9",
"c%	c #6A6A8F",
"d%	c #E1E2F2",
"e%	c #9D9EBA",
"f%	c #BCBCD5",
"g%	c #C4C3E4",
"h%	c #BBBCE2",
"i%	c #BBBBE1",
"j%	c #C7C8DB",
"k%	c #D4D4E8",
"l%	c #3A3A69",
"m%	c #707095",
"n%	c #D8D7EE",
"o%	c #C3C2E5",
"p%	c #BCBCE1",
"q%	c #BCBBE2",
"r%	c #BBBBE2",
"s%	c #707096",
"t%	c #3A3A68",
"u%	c #C3C4E5",
"v%	c #BDBDE3",
"w%	c #BBBAE1",
"x%	c #DDDCF1",
"y%	c #D9DAEE",
"z%	c #BABBE1",
"{%	c #BABAE1",
"|%	c #C3C3E6",
"}%	c #C2C3E4",
"~%	c #BBBAE2",
" &	c #B9B9E0",
"!&	c #F0EFF8",
"#&	c #EDECF8",
"$&	c #E6E5F5",
"%&	c #D1D0EA",
"&&	c #C8C7E6",
"'&	c #BEBDE3",
"(&	c #B9B9E1",
")&	c #BCBBE1",
"*&	c #BAB9E0",
"+&	c #C9CAE7",
",&	c #B9B8E0",
"-&	c #BDBEE3",
".&	c #BAB9E1",
"0&	c #B9BAE1",
"1&	c #B8B8E0",
"2&	c #9898B2",
"3&	c #BFC0E3",
"4&	c #B4B4C2",
"5&	c #B3B3C1",
"6&	c #B2B2C0",
"7&	c #B1B1C0",
"8&	c #B0B0BF",
"9&	c #B0AFBF",
":&	c #AFAEBF",
";&	c #AFADBE",
"<&	c #ADACBE",
"=&	c #ABABBE",
">&	c #AAAABD",
"?&	c #A8A8BC",
"@&	c #A7A7BB",
"A&	c #A5A5BB",
"B&	c #A4A4BB",
"C&	c #A3A3BA",
"D&	c #A1A1B9",
"E&	c #9FA0B9",
"F&	c #9E9FB7",
"G&	c #9C9CB7",
"H&	c #9B9BB6",
"I&	c #9999B6",
"J&	c #9898B6",
"K&	c #9696B4",
"L&	c #9494B4",
"M&	c #363667",
"                                                                                                                                ",
"                                                                                                                                ",
"                                                                                                                                ",
"                                                                                                                                ",
"                                                                                                                                ",
"                                                                                                                                ",
"                                                                                                                                ",
"                                                                                                                                ",
"  # $ % % % % % % % % % % % % % % % % % % % % % % % % % % % % % % % % % % % % % % % % % % % % % % % % % % % % % % % % % $ #     ",
"# % & ' ' ' ' ' ' ' ' ' ' ' ' ' ' ' ' ' ' ' ' ' ' ' ' ' ' ' ' ' ' ' ' ' ' ' ' ' ' ' ' ' ' ' ' ' ' ' ' ' ' ' ' ' ' ' ' ' & % #   ",
"$ & & & & & & & & & & & & & & & & & & & & & & & & & & & & & & & & & & & & & & & & & & & & & & & & & & & & & & & ( ( ( ( & & $   ",
"% ' & & & & & & & & & & & & & & & & & & & & & & & & & & & & & & & & & & & & & & & & & & & & & & & & & & & & & & ( ) ) ( & ' %   ",
"% ' & & & & & & & & & & & & & & & & & & & & & & & & & & & & & & & & & & & & & & & & & & & & & & & & & & & & & & ( ) ) ( & ' %   ",
"% ' & & & & & & & & & & & & & & & & & & & & & & & & & & & & & & & & & & & & & & & & & & & & & & & & & & & & & & ( ( ( ( & ' %   ",
"% % % % % % % % % % % % % % % % % % % % % % % % % % % % % % % % % % % % % % % % % % % % % % % % % % % % % % % % % % % % % % %   ",
"% * + + + , - . 0 1 2 3 4 5 6 7 8 9 : ; < = > ? @ A B C D E F G H I J K L M N O P Q R S T U V W X Y Z [ ] ^ _ ` a b c d e f g   ",
"% * + + h i j 0 k k 2 3 5 6 l 7 m n o p q r ? @ A s t D u v w H x y z { L N O | Q } ~  !!!#!W X Y $!%!&!'!(!)!*!+!,!-!.!0!1!%   ",
"% * + + i i 0 2!k 3!3 4!5 5!7 6!n 7!; q 8!9!:!A s s B ;!E F <!=!y >!?!@!A!B!C!Q D!E!S F!U V W G!H!Z I!'!J!)!*!a +!-!K!0!L!M!%   ",
"% * + N!O!P!1 2!Q!3 4!4!6 5!m m R!S!q q 8!:!T!T!s B D E U!V!W!X!>!Y!Z!N B![!]!^!_!`!a!b!V W c!$!d!e!f!g!h!i!a +!j!-!K!k!l!m!%   ",
"% * , h O!0 0 Q!3 4!n!o!7 7 m n p!q q 8!q!r!T!s!t!u!v!w!w W!x I z { L N O x!Q } `! !!!y!z!{!Y $!|!&!'!h!}!~! #!#-!e 0!k!##$#%   ",
"% * , i 0 k %#&#'#4!5 6 7 m (#S!p!q = 9!:!T!s!)#B ;!*#F H +#x J K ,#-#N | Q .#R S 0#U z!W 1#Y %!&!'!h!(!2#~!3#-!K!4#5###6#7#%   ",
"% * i P!0 0 3 3 4 n!8#7 9#:#: S!;#<#9!r!=#s!s B D u U!w H x J z >#?#@#O Q ^!R S F!U V W X A#B#e!'!J!(!C#~!a !#D#.!5#E###F#G#%   ",
"% * i j 0 k 3 3 4!6 l 7 m H#I#J#q = ? @ T!s B D v!U!K#W!+#L#z { L M O x!Q .#E!S 0#y!M#X N#$!|!&!^ h!i!*!+!,!O#K!0!P###Q#R#S#%   ",
"% * 0 0 k 2 3 4!8#5!7 9#(#T#U#U#V#q!r!@ W#X#)#u v Y#Z#=![#J ]#^#M _#| `#.#E!S 0#a#V b#X Y c#e!^ '!)!*!~! #-!O#0!L!d#e#f#R#g#%   ",
"% * 0 2!k 3 4 h#8#7 7 n : i#j#U#k#? l#A m#)#D u n#w H +#J K >#L N O | o#p#S a!!!V W X Y c#%!q#J!h!` *!+!,!K!e r###e#F#R#s#t#%   ",
"% * 1 k &#'#n!8#6 9#m : S!;#u#U#v#@ A s!)#)#w#x#w Z#=!I y#>#@!N @#| Q _!E!S z##!W {#Y |#Z &!^ h!)!*!+!c -!}#0!P###6#f#s#~# $%   ",
"% * 2!Q!3 4!4!5!7 n !$: p!q #$U#U#$$%$s D v!n#U!V!H L#J K { M O &$'$o#E!S 0#b!V W 1#H!|!&!^ h!($)$a !#*$K!0!P#k!+$,$R#-$.$0$%   ",
"% * k 3 4!1$6 l 9#m : S!q q r 2$U#3$s B D u U!V!H X!J Y!@!?#4$C!5$o#_!`! !z#V 6$X A#7$%!&!8$h!i!9$+!!#-!:$L!####6#R#;$~#<$=$%   ",
"% * &#3 4!8#6 7 n 9 : < q = > >$U#U#?$@$D U!U!V!+#[#J >#L N @#| Q .#~ a!A$U 6$b#1#|#%!&!'!h!)!*!a !#-!K!0!k!##6#R#s#~#<$B$C$%   ",
"% * 3 D$o!8#7 8 !$o p!q 8!8!:!E$U#U#F$D E U!w W!X!L#z ,#L 4$C!]!Q E!S 0#U z!b#N#|#B#[ G$J!(!)!9$ #!#.!0!H$I$##f#J$s#.$<$K$L$%   ",
"% * 4 1$8#6 9#M$U#j#N$q O$:!@ T!3$U#P$u n#Y#G x I z >#L N O | Q _!`!Q$b!V M#X G!$!|!&!R$_ }!~! #!#-!.!0!I$##S$R#s#T$<$K$U$V$%   ",
"% * 4!6 5!7 W$U#U#U#X$= q!? A A Y$U#U#Z$F w H J y#{ ^#M O | Q .#R S !!U z!W [$$!d!&!] h!)!C#a 3#-!K!0!k!##6#R#]$^$_$<$U$`$a$%   ",
"% * 1$8#l 9#b$U#U#U#c$? ? @ T!X#u!v#U#d$V!H x >!z ^#4$N [!]!Q R e$0#U y!W X A#7$%!&!'!_ C#9$f$-!K!g$5#h$6#,$R#s#.$i$B$U$j$k$%   ",
"% * 8#7 7 : l$j#U#U#m$? n$T!s t!D o$U#v#p$x x z >#L N O P Q q$R T A$r$W [$Y $!%!q#^ _ )!9$s$c D#K!r#P###6#R#s#-$<$t$U$j$u$v$%   ",
"% * 6 7 n (#: w$x$y$? :!@ s X#)#D z$U#U#{$L#y#]#L 4$O [!| .#E!S 0#V |$W N#$!c#e!] h!)!2#a !#-!.!0!P###e#,$s#^$T$<$t$`$j$u$}$%   ",
"% * 6 9#n : p!q = 8!r!~$A m#C D E U! %U# %J z >#?#!%O 5$^!R S a!z#V W 1#Y B#I!G$J!_ C#9$+!-!#%e P#h$e#F#s#~#.$_$K$$%u$u$%%}$%   ",
"% * &%m : p!'%<#= ? @ A s (%D v!v w )%U#U#*%>#L N O | ^!D!`!T 0#V z!X Y $!|!&!'!h!)!*! #-!#%g$r#k!+%6#f#,%.$<$K$t$`$u$-%.%}$%   ",
"% * 0%(#S!; q <#? @ @ T!t )#;!n#U!G p$U#U#1%Z!-#O O '$.#E!0#F!U y!X 1#2%7$e!'!J!_ 2#s$!#-!K!0!k!h$6#S$,%s#<$<$t$`$3%u$%%4%}$%   ",
"% * n : p!p = > ? @ W#s )#D u U!w 5%I 6%U#v#M N [!5$^!.#S  !U V W N#Y c#I!&!R$)!` 7%+!!##%4#k!d#e#8%J$s#.$<$B$9%j$:%%%;%<%}$%   ",
"% * 9 : '%q = ? @ T!W#X#=%E E w H x J >%U#U#?%O x!'$q$e$S z#U @%b#Y $!%!I!'!_ )!*!f$A%-!.!0!k!##Q#f#s#.$_$K$$%`$u$-%B%4%C%}$%   ",
"% * : ;#q = = :!A T!s =%v!E Y#G H J J z D%U#E%C!P .#E!F%0##!V W N#2%$!&!'!g!}!*!*!!#-!.!0!H$l!Q#S$s#T$.$<$t$`$j$G%;%4%H%I%}$%   ",
"% * ; p <#9!@ J%K%L%B D u U!w H X!J z { M%U#U#N%Q E!S T z#y!W X |#7$O%&!J!h!)!9$!#-!O#0!H$E###6#J$]$.$.$B$P%Q%:%%%;%4%I%R%}$%   ",
"% * p!q r ? J%v#U#U#S%T%v w H =!L#z K U%V%U#U#W%p#E!F%z#U 6$X A#2%%!&!^ h!}!*!a !#-!:$r#k!e#6#,$]$]$X%t$t$`$:%%%4%4%C%R%Y%}$%   ",
"% * q = q!:!Z%U#U#U#[%E U!w +#X!y#z ^#M @#]%U#^%R S F!a#|$6$G!Y $!I!_%h!(!*!9$b -!K!0!P#E#6#,$R#~#X%<$t$$%`$G%%%4%C%`%Y%a%}$%   ",
"% * = r r!=#b%U#U#U#c%U!w H x L#Y!{ ?#d%[!e%U#U#f%0#z#V W X A#$!|!q#'!_ }!~!a !#-!K!L!h$+$Q#R#s#.$g%<$9%`$u$%%%%C%I%R%h%i%}$%   ",
"% * 8!q!@ l#T!3$U#P$j%U!Z#+#y z ?!^#M @#| k%l%U#m%z#U V n%Y $!|!&!^ h!)!*!f$!#-!K!0!P###6#R#s#-$_$o%$%`$u$:%%%H%<%I%p%q%r%}$%   ",
"% * q!:!A T!s )#D w!U!G H [#y#z >#N B![!Q o#s%U#t%U V W X 2%B#e!G$h!_ )$s$+!c d 0!0!h$6#S$R#]$u%<$K$U$u$G%%%4%v%`%Y%r%i%w%}$%   ",
"% * ? n$T!s X#D u v w Z#H J z { L 4$[!| Q E!x%Q$U y%W X N#$!%!G$^ h!)!~!+!-!O#0!H$k!##F#,%s#.$<$t$`$3%:%-%%%H%v%R%Y%i%z%{%}$%   ",
"% * r!A s!t!D v!U!F G =!X!>!]#^#4$O x!Q D!E!S !!V W W N#$!|!&!'!8$)!*!a 3#-!.!0!k!##+%f#,%~#|%}%t$`$:%%%;%H%v%Y%p%r%~%z% &}$%   ",
"% * !&s!X##&;!u U!G H x $&z @!M 4$C!Q .#R `!F!U z!W 1#Y %!e!G$h!%&` ~!+!,!.!e 0!##&&Q#R#s#.$<$K$`$u$u$%%4%'&I%R%Y%i%i%{%(&}$%   ",
"% * T!s )#D u *#F W!x L#z >#L 4$C!| o#q$~ 0#A$y!M#X Y $!%!&!g!(!)!~! #c *$.!0!P#e#6#R#s#T$<$}%t$j$:%%%.%4%I%R%p%)&z%{%*& &}$%   ",
"% * s!)#u!D v U!Z#+#I >!K L M d%| 5$.#`!F%0#U @%X A#|#%!O%^ h!)!2#9$!#-!K!0!+&h$6#8%s#]$u%<$K$`$u$-%%%H%H%I%Y%r%{%{%{%(&,&}$%   ",
"% * s B D x#U!w H I >!]#U%?#4$[!P o#q$S F!U y!W [$|#c#I!G$g!_ ` *!f$c K!e P#d###R#R#]$T$<$t$`$`$:%%%4%-&I%Y%i%i%w%.&0&1&1&}$%   ",
"$ 2&B D u *#Y#H x J z { L 4$O x!Q } x%T !!y%W X Y 2%|!&!'!h!` *!a !#O#g$0!h$##6#R#s#;$<$}%t$3%j$3&B%H%I%R%Y%i%z%{%{% &(&1&$ $   ",
"# ( 2&4&4&5&6&7&8&9&:&;&<&=&>&>&m!m!?&@&7#A&B&C&S#S#D&g#E&t#F& $ $G&H&=$=$I&I&J&L$L$V$V$K&a$a$L&v$}$}$}$}$}$}$}$}$}$}$}$$ M&#   ",
"  # $ % % % % % % % % % % % % % % % % % % % % % % % % % % % % % % % % % % % % % % % % % % % % % % % % % % % % % % % % % $ #     ",
"                                                                                                                                ",
"                                                                                                                                ",
"                                                                                                                                ",
"                                                                                                                                ",
"                                                                                                                                ",
"                                                                                                                                ",
"                                                                                                                                ",
"                                                                                                                                "};