/* XPM */ 
static const unsigned char * db2folder_xpm[] = {
"64 64 533 2",
"  	c None",
"! 	c black",
"# 	c #16518E",
"$ 	c #31689E",
"% 	c #4C7EAF",
"& 	c #6694BE",
"' 	c #7FA9CE",
"( 	c #8EB6D7",
") 	c #9CC3E1",
"* 	c #9AC1E0",
"+ 	c #97BEDE",
", 	c #93BCDD",
"- 	c #90B9DC",
". 	c #8CB7DA",
"0 	c #7AA7CF",
"1 	c #6999C4",
"2 	c #5285B6",
"3 	c #3D73A8",
"4 	c #28619B",
"5 	c #4578AA",
"6 	c #749FC6",
"7 	c #98BEDC",
"8 	c #A9CCE6",
"9 	c #A8CBE6",
": 	c #A6CAE5",
"; 	c #A4C8E4",
"< 	c #A2C6E3",
"= 	c #9FC5E2",
"> 	c #9AC0E0",
"? 	c #96BEDE",
"@ 	c #8FB9DB",
"A 	c #8BB6D9",
"B 	c #87B3D8",
"C 	c #83AFD6",
"D 	c #7EACD4",
"E 	c #79A8D2",
"F 	c #699AC7",
"G 	c #4E83B6",
"H 	c #2B649D",
"I 	c #205994",
"J 	c #6391BC",
"K 	c #9CC1DE",
"L 	c #AFD0E9",
"M 	c #AED0E8",
"N 	c #ADCFE8",
"O 	c #ACCEE8",
"P 	c #AACDE7",
"Q 	c #A7CAE5",
"R 	c #A2C7E3",
"S 	c #9CC2E1",
"T 	c #99C0DF",
"U 	c #95BDDE",
"V 	c #92BBDC",
"W 	c #8EB8DA",
"X 	c #8AB5D9",
"Y 	c #85B1D7",
"Z 	c #81AED5",
"[ 	c #7CAAD3",
"] 	c #77A7D0",
"^ 	c #72A3CE",
"_ 	c #6C9ECC",
"` 	c #5D91C2",
"a 	c #3C74AB",
"b 	c #1A5591",
"c 	c #6492BC",
"d 	c #A8CBE5",
"e 	c #B2D3EA",
"f 	c #B1D2EA",
"g 	c #B0D1E9",
"h 	c #AED0E9",
"i 	c #ABCEE7",
"j 	c #A1C6E3",
"k 	c #9EC4E2",
"l 	c #9BC2E0",
"m 	c #98BFDF",
"n 	c #94BCDD",
"o 	c #8CB6DA",
"p 	c #88B3D8",
"q 	c #83B0D6",
"r 	c #79A8D1",
"s 	c #74A4CF",
"t 	c #6EA0CD",
"u 	c #699CCA",
"v 	c #6398C8",
"w 	c #588FC2",
"x 	c #3770A8",
"y 	c #477AAB",
"z 	c #AACCE5",
"{ 	c #B4D4EB",
"| 	c #B4D5EB",
"} 	c #B3D3EB",
"~ 	c #B0D2EA",
" !	c #A3C8E4",
"!!	c #9DC3E1",
"#!	c #8EB8DB",
"$!	c #80ADD5",
"%!	c #7BAAD2",
"&!	c #76A6D0",
"'!	c #70A2CE",
"(!	c #6B9DCB",
")!	c #6599C9",
"*!	c #5F95C6",
"+!	c #588FC3",
",!	c #4E87BD",
"-!	c #27629D",
".!	c #83ABCE",
"0!	c #B5D5EB",
"1!	c #B5D5EC",
"2!	c #B6D6EC",
"3!	c #AFD1E9",
"4!	c #ABCDE7",
"5!	c #A5C9E5",
"6!	c #A2C7E4",
"7!	c #90B9DB",
"8!	c #82AFD5",
"9!	c #7DABD3",
":!	c #78A7D1",
";!	c #6C9FCC",
"<!	c #669AC9",
"=!	c #6096C7",
">!	c #5A91C4",
"?!	c #538CC1",
"@!	c #4D87BE",
"A!	c #3A75AE",
"B!	c #195491",
"C!	c #346A9F",
"D!	c #B7D7EC",
"E!	c #B8D7ED",
"F!	c #ACCFE8",
"G!	c #A7CBE6",
"H!	c #92BADC",
"I!	c #8DB7DA",
"J!	c #88B4D8",
"K!	c #84B0D6",
"L!	c #689BCA",
"M!	c #6297C7",
"N!	c #5B92C5",
"O!	c #558DC2",
"P!	c #4E88BF",
"Q!	c #4A85BD",
"R!	c #4782BA",
"S!	c #205B97",
"T!	c #5182B1",
"U!	c #B7D6EC",
"V!	c #90B6D5",
"W!	c #7CA5C9",
"X!	c #6895BE",
"Y!	c #86AECF",
"Z!	c #B9D8ED",
"[!	c #A8CCE6",
"]!	c #9FC4E2",
"^!	c #9BC1E0",
"_!	c #97BFDE",
"`!	c #487DB0",
"a!	c #467BAF",
"b!	c #487EB1",
"c!	c #5A8EBF",
"d!	c #5D93C5",
"e!	c #568EC2",
"f!	c #4F89BF",
"g!	c #2A65A0",
"h!	c #5082B1",
"i!	c #B3D4EB",
"j!	c #8EB5D5",
"k!	c #487BAC",
"l!	c #255C95",
"m!	c #507DAA",
"n!	c #4C7AA9",
"o!	c #5384B2",
"p!	c #A4C6E1",
"q!	c #A9CCE7",
"r!	c #A0C5E2",
"s!	c #98C0DF",
"t!	c #8CB6D8",
"u!	c #5385B5",
"v!	c #1D5793",
"w!	c #7C9DBF",
"x!	c #8BA8C7",
"y!	c #5F87B1",
"z!	c #4B7AAA",
"{!	c #3A72AA",
"|!	c #538BBF",
"}!	c #508AC0",
"~!	c #4B85BD",
" #	c #5081B0",
"!#	c #5C8BB7",
"##	c #D3DEEA",
"$#	c white",
"%#	c #F0F4F8",
"&#	c #A8BED5",
"'#	c #ABC8DF",
"(#	c #709EC6",
")#	c #1E5893",
"*#	c #B6C9DC",
"+#	c #93B0CD",
",#	c #548ABE",
"-#	c #4B86BD",
".#	c #4F81B0",
"0#	c #A9CBE5",
"1#	c #E2E9F1",
"2#	c #D5E5F1",
"3#	c #B9D7ED",
"4#	c #A5C9E4",
"5#	c #6B99C2",
"6#	c #F4F8FB",
"7#	c #8EB3D6",
"8#	c #32699F",
"9#	c #3D72A5",
":#	c #6D92B8",
";#	c #F1F7FB",
"<#	c #B8D6EC",
"=#	c #6E9BC3",
">#	c #B0CAE2",
"?#	c #1F5994",
"@#	c #A2C6E2",
"A#	c #6D99C2",
"B#	c #B6D5EB",
"C#	c #709CC4",
"D#	c #7BA5CB",
"E#	c #A5C8E3",
"F#	c #F0F6FB",
"G#	c #B3D3EA",
"H#	c #729EC5",
"I#	c #F4F7FB",
"J#	c #6194C5",
"K#	c #75A0C6",
"L#	c #79A2C7",
"M#	c #BBD1E6",
"N#	c #26619D",
"O#	c #1F5893",
"P#	c #9BC1DF",
"Q#	c #4E80B0",
"R#	c #33679C",
"S#	c #558DC1",
"T#	c #5B8BB8",
"U#	c #3B70A4",
"V#	c #EBF1F6",
"W#	c #83ABD2",
"X#	c #306BA6",
"Y#	c #96BDDD",
"Z#	c #D5E4F1",
"[#	c #E5F1F9",
"]#	c #A5C2DE",
"^#	c #5889B7",
"_#	c #D2E1EF",
"`#	c #84ACD3",
"a#	c #ABCDE6",
"b#	c #BAD9EE",
"c#	c #E4F0F8",
"d#	c #88B2D5",
"e#	c #9BC2E1",
"f#	c #3A6FA4",
"g#	c #B4CBDF",
"h#	c #D3E1EF",
"i#	c #87AFD4",
"j#	c #99BEDE",
"k#	c #E3EFF8",
"l#	c #447FB7",
"m#	c #3D72A7",
"n#	c #A0C5E3",
"o#	c #D4E2F0",
"p#	c #89B1D5",
"q#	c #9AC0DF",
"r#	c #E2EEF7",
"s#	c #235E9A",
"t#	c #6392BF",
"u#	c #77A3C9",
"v#	c #A4C2DB",
"w#	c #D5E3F0",
"x#	c #8CB3D7",
"y#	c #9CC0DF",
"z#	c #B2D2EA",
"{#	c #E1EDF7",
"|#	c #77A4CE",
"}#	c #3772AB",
"~#	c #7FABD1",
" $	c #9ABEDB",
"!$	c #FBFDFE",
"#$	c #D6E4F1",
"$$	c #8FB5D8",
"%$	c #9DC1E0",
"&$	c #AFD0E8",
"'$	c #E0EDF6",
"($	c #F7FAFC",
")$	c #2B649C",
"*$	c #8FB8DB",
"+$	c #93BBDD",
",$	c #DDECF6",
"-$	c #D7E5F1",
".$	c #91B7D9",
"0$	c #9DC2E0",
"1$	c #ACCEE7",
"2$	c #DFECF6",
"3$	c #C1D5E9",
"4$	c #4075A9",
"5$	c #BEDBEF",
"6$	c #D8E6F2",
"7$	c #94BADB",
"8$	c #84B1D6",
"9$	c #AACBE6",
":$	c #DEEBF5",
";$	c #7AA5CE",
"<$	c #5386B6",
"=$	c #89B4D9",
">$	c #CEE3F2",
"?$	c #D9E6F2",
"@$	c #97BCDC",
"A$	c #A7C9E4",
"B$	c #DDEAF4",
"C$	c #9DBDDC",
"D$	c #598FC2",
"E$	c #336EA8",
"F$	c #6495C2",
"G$	c #86B2D7",
"H$	c #B8D7EC",
"I$	c #D1E4F2",
"J$	c #DAE7F3",
"K$	c #9ABEDD",
"L$	c #7AA9D2",
"M$	c #75A5D0",
"N$	c #92BADB",
"O$	c #A4C7E3",
"P$	c #DCE9F4",
"Q$	c #B5CEE5",
"R$	c #74A2CD",
"S$	c #3D78B1",
"T$	c #6E9EC9",
"U$	c #82AFD6",
"V$	c #B5D4EB",
"W$	c #CFE3F2",
"X$	c #DBE8F3",
"Y$	c #9CC2E0",
"Z$	c #92BBDD",
"[$	c #7FACD4",
"]$	c #6D9FCC",
"^$	c #8DB6D9",
"_$	c #A2C5E1",
"`$	c #B7CFE6",
"a$	c #7DA8D0",
"b$	c #4E88BE",
"c$	c #77A6D0",
"d$	c #7BA9D2",
"e$	c #89B4D8",
"f$	c #91BADC",
"g$	c #A9CBE6",
"h$	c #CDE2F1",
"i$	c #9FC3E0",
"j$	c #99C1E0",
"k$	c #73A3CF",
"l$	c #699CCB",
"m$	c #6499C8",
"n$	c #88B3D7",
"o$	c #9FC2E0",
"p$	c #DAE8F3",
"q$	c #B8D1E6",
"r$	c #80AAD2",
"s$	c #82AED5",
"t$	c #A6C9E5",
"u$	c #CCE0F0",
"v$	c #A2C5E2",
"w$	c #97BFDF",
"x$	c #95BEDE",
"y$	c #94BDDD",
"z$	c #6FA0CD",
"{$	c #6A9DCB",
"|$	c #659AC9",
"}$	c #5B92C4",
"~$	c #83AED5",
" %	c #D9E7F2",
"!%	c #BAD2E7",
"#%	c #82ACD3",
"$%	c #80AED5",
"%%	c #8BB5D9",
"&%	c #94BADA",
"'%	c #ADCEE7",
"(%	c #CFE2F1",
")%	c #E9F1F8",
"*%	c #99BFDF",
"+%	c #7EACD3",
",%	c #6FA1CD",
"-%	c #6197C7",
".%	c #5C93C5",
"0%	c #578FC3",
"1%	c #528BC0",
"2%	c #719DC6",
"3%	c #99BEDD",
"4%	c #DFEAF4",
"5%	c #C3D8EA",
"6%	c #84AED4",
"7%	c #7FADD4",
"8%	c #5F90BD",
"9%	c #EFF5FA",
":%	c #BED7EB",
";%	c #538BC1",
"<%	c #2C66A1",
"=%	c #83A8CB",
">%	c #F9FBFD",
"?%	c #EBF2F8",
"@%	c #5A90C3",
"A%	c #71A2CE",
"B%	c #74A5CF",
"C%	c #77A7D1",
"D%	c #5C8DBC",
"E%	c #B6D1E7",
"F%	c #89B5D9",
"G%	c #87B2D7",
"H%	c #6DA0CC",
"I%	c #4272A3",
"J%	c #DDE8F3",
"K%	c #689CCA",
"L%	c #72A3CF",
"M%	c #7CABD3",
"N%	c #588ABA",
"O%	c #B3CFE6",
"P%	c #70A1CD",
"Q%	c #6196C7",
"R%	c #538ABE",
"S%	c #679BCA",
"T%	c #73A4CF",
"U%	c #5387B8",
"V%	c #B0CCE4",
"W%	c #6095C6",
"X%	c #5C92C5",
"Y%	c #477FB5",
"Z%	c #5E94C6",
"[%	c #6B9ECB",
"]%	c #5F92C2",
"^%	c #ACC9E3",
"_%	c #78A8D1",
"`%	c #70A1CE",
"a%	c #528BC1",
"b%	c #3872AA",
"c%	c #5990C3",
"d%	c #6298C8",
"e%	c #C5D4E3",
"f%	c #A8C6E1",
"g%	c #72A2CE",
"h%	c #518AC0",
"i%	c #2B66A0",
"j%	c #C6D9EA",
"k%	c #548ABD",
"l%	c #A3C3DF",
"m%	c #679AC9",
"n%	c #2B65A0",
"o%	c #578EC2",
"p%	c #5990C4",
"q%	c #346EA6",
"r%	c #9FBFDD",
"s%	c #5E95C6",
"t%	c #5A90C4",
"u%	c #578EC3",
"v%	c #548CC1",
"w%	c #26609B",
"x%	c #9ABCDB",
"y%	c #4D88BE",
"z%	c #1D5894",
"{%	c #94B8D9",
"|%	c #8FB4D6",
"}%	c #9FB9D3",
"~%	c #7A9FC4",
" &	c #A8C4DC",
"!&	c #B5CBE0",
"#&	c #6899C8",
"$&	c #EAF3FA",
"%&	c #AEC9E2",
"&&	c #78A7D0",
"'&	c #D4E7F4",
"(&	c #E0EAF4",
")&	c #6EA0CC",
"*&	c #CCE2F2",
"+&	c #B3CDE4",
",&	c #79A5CF",
"-&	c #8EB7DA",
".&	c #D2E6F3",
"0&	c #9BBCDB",
"1&	c #E0EDF7",
"2&	c #7BA7D0",
"3&	c #D9E6F1",
"4&	c #6799C8",
"5&	c #7DA9D1",
"6&	c #E9F0F7",
"7&	c #8AB1D5",
"8&	c #F8FAFD",
"9&	c #ABC7E2",
":&	c #80ABD2",
";&	c #B2D2E9",
"<&	c #C8DEEF",
"=&	c #FAFCFE",
">&	c #E2ECF5",
"?&	c #90B5D7",
"@&	c #6195C6",
"A&	c #A1C5E2",
"B&	c #C3DCEE",
"C&	c #EBF3F9",
"D&	c #F8FBFD",
"E&	c #98BCDC",
"F&	c #B7D4EA",
"G&	c #F1F6FA",
"H&	c #71A0CC",
"I&	c #98BFDE",
"J&	c #BAD5EA",
"K&	c #CEE1F0",
"L&	c #E8F0F8",
"M&	c #E7F0F7",
"N&	c #CEE0EF",
"O&	c #BFD6EA",
"P&	c #9DC0DE",
"Q&	c #ACCDE7",
"R&	c #B2D0E7",
"S&	c #CCDFEF",
"T&	c #E2EDF6",
"U&	c #E6EFF7",
"V&	c #D1E1F0",
"W&	c #B5CFE6",
"X&	c #8EB5D8",
"Y&	c #A0C4E2",
"Z&	c #AACCE6",
"[&	c #A5C7E3",
"]&	c #8DB5D8",
"^&	c #6699C8",
"_&	c #92B9DB",
"`&	c #96BCDC",
"a&	c #7FABD2",
"b&	c #73A3CE",
"c&	c #76A5CF",
"d&	c #75A4CF",
"e&	c #6E9FCC",
"f&	c #568DC2",
"g&	c #71A2CD",
"h&	c #7BA9D1",
"i&	c #8AB3D7",
"j&	c #88B1D6",
"k&	c #7CA9D1",
"                                                  # # # # # # # # # # # # # #                                                   ",
"                                          # # # $ % & ' ( ) * + , - . 0 1 2 3 4 # # #                                           ",
"                                      # # 5 6 7 8 9 : ; < = ) > ? , @ A B C D E F G H # #                                       ",
"                                  # I J K L M N O P 8 Q ; R = S T U V W X Y Z [ ] ^ _ ` a b #                                   ",
"                              # I c d e e f f g h N i 8 Q ; j k l m n - o p q D r s t u v w x b #                               ",
"                          # # y z { | | { { } e ~ L N i 8 :  !j !!* ? V #!X Y $!%!&!'!(!)!*!+!,!-!# #                           ",
"                        # I .!0!1!2!2!2!2!1!0!{ e f 3!N 4!9 5!6!= S m n 7!A B 8!9!:!^ ;!<!=!>!?!@!A!B!#                         ",
"                      # C!z 1!2!D!E!E!E!E!D!2!1!{ e f L F!P G!; j !!* ? H!I!J!K!D r s t L!M!N!O!P!Q!R!S!#                       ",
"                    # T!{ 1!U!E!V!W!X!Y!V!Z!E!U!1!{ e g M i [!5!R ]!^!_!, #!X 1 2 `!a!b!c!v d!e!f!Q!Q!Q!g!#                     ",
"                  # h!i!1!j!k!# # l!m!m!m!n!o!p!U!1!i!f L O q!Q  !r!S s!t!u!v!# l!m!w!x!y!z!{!|!}!~!Q!Q!Q!g!#                   ",
"                #  #e z !## l!w!##$#$#$#$#$#%#&#'#2!{ e g N P 9 ; j !!(#)## m!*#$#$#$#$#$#$#%#+#,#-#Q!Q!Q!Q!g!#                 ",
"              # .#~ 0#C!# m!1#$#$#$#$#$#$#$#$#$#$#2#3#} ~ M i 9 4#j 5## l!*#$#$#$#$#$#$#$#$#$#$#6#7#Q!Q!Q!Q!Q!g!#               ",
"            # 8#h f 9## :#$#$#$#$#$#$#$#$#$#$#$#$#$#;#<#f h i [!5!=## l!##$#$#$#$#$#$#$#$#$#$#$#$#$#>#Q!Q!Q!Q!Q!S!#             ",
"          # ?#@#h A## y!$#$#$#$#$#$#$#$#$#$#$#$#$#$#$#;#B#h O 8 C## l!##$#$#$#$#$#$#$#$#$#$#$#$#$#$#$#7#Q!Q!Q!Q!R!B!#           ",
"          # D#i E#I l!%#$#$#$#$#$#$#$#$#$#$#$#$#$#$#$#$#F#G#i H## l!##$#$#$#$#$#$#$#$#$#$#$#$#$#$#$#$#I#J#Q!Q!Q!Q!A!#           ",
"        # % 9 4!K## x!$#$#$#$#$#$#$#$#$#$#$#$#$#$#$#$#$#$#F#L## l!##$#$#$#$#$#$#$#$#$#$#$#$#$#$#$#$#$#$#M#Q!Q!Q!Q!Q!N##         ",
"        O#P#G!P Q## %#$#$#$#$#$#$#$#$#$#$#$#$#$#$#$#$#$#$#$###R###$#$#$#$#$#$#$#$#$#$#$#$#$#$#$#$#$#$#$#$#S#Q!Q!Q!Q!R!B!        ",
"      # T# !: q!U#m!$#$#$#$#$#$#$#$#$#$#$#$#$#$#$#$#$#$#$#$#$#V#$#$#$#$#$#$#$#$#$#$#$#$#$#$#$#$#$#$#$#$#$#W#Q!Q!Q!Q!Q!X##       ",
"      )#Y#R 5!9 # x!$#$#$#$#$#$#$#$#$#$#$#$#$#$#$#$#$#$#$#$#Z#E#[#$#$#$#$#$#$#$#$#$#$#$#$#$#$#$#$#$#$#$#$#]#Q!Q!Q!Q!Q!R!B!      ",
"    # ^#!!j ; Q ?#x!$#$#$#$#$#$#$#$#$#$#$#$#$#$#$#$#$#$#$#_#`#a#b#c#$#$#$#$#$#$#$#$#$#$#$#$#$#$#$#$#$#$#$#]#Q!Q!Q!Q!Q!Q!X##     ",
"    # d#e#= R 5!f#g#$#$#$#$#$#$#$#$#$#$#$#$#$#$#$#$#$#$#h#i#j#6!g U!k#$#$#$#$#$#$#$#$#$#$#$#$#$#$#$#$#$#$#]#Q!Q!Q!Q!Q!Q!l##     ",
"  # m#? * !!n# !% g#$#$#$#$#$#$#$#$#$#$#$#$#$#$#$#$#$#o#p#q# !j !!O { r#$#$#$#$#$#$#$#$#$#$#$#$#$#$#$#$#$#]#Q!Q!Q!Q!Q!Q!Q!s##   ",
"  # t#n m l k j u#v#$#$#$#$#$#$#$#$#$#$#$#$#$#$#$#$#w#x#y#; j k l m 9 z#{#$#$#$#$#$#$#$#$#$#$#$#$#$#$#$#$#|#Q!Q!Q!Q!Q!Q!Q!}##   ",
"  # ~#H!U T S ]!<  $!$$#$#$#$#$#$#$#$#$#$#$#$#$#$##$$$%$; R = S T U V ; &$'$$#$#$#$#$#$#$#$#$#$#$#$#$#$#($w Q!Q!Q!Q!Q!Q!Q!l##   ",
"  )$A *$+$? T S = L ,$$#$#$#$#$#$#$#$#$#$#$#$#$#-$.$0$; < = ) > ? +$@ A r!1$2$$#$#$#$#$#$#$#$#$#$#$#$#$#3$Q!Q!Q!Q!Q!Q!Q!Q!Q!S!  ",
"# 4$J!o 7!, + > S ; 5$!$$#$#$#$#$#$#$#$#$#$#$#6$7$0$ !j ]!) * + , - . J!8$^!9$:$$#$#$#$#$#$#$#$#$#$#$#($;$Q!Q!Q!Q!Q!Q!Q!Q!Q!g!# ",
"# <$Y =$I!- , ? T S e >$$#$#$#$#$#$#$#$#$#$#?$@$0$R r!k S T + , - I!=$Y Z 9!+ A$B$$#$#$#$#$#$#$#$#$#$#C$D$Q!Q!Q!Q!Q!Q!Q!Q!Q!E$# ",
"# F$8!G$=$I!- , ? s!r!H$I$$#$#$#$#$#$#$#$#J$K$0$r!k ) ^!s!? , - I!X G$8!D L$M$N$O$P$$#$#$#$#$#$#$#$#Q$R$Q!Q!Q!Q!Q!Q!Q!Q!Q!Q!S$# ",
"# T$D U$G$=$. 7!V U _!5!V$W$$#$#$#$#$#$#X$y#Y$!!S ^!T _!U Z$7!I!=$G$C [$L$&!^ ]$^$_$X$$#$#$#$#$#$#`$a$b$Q!Q!Q!Q!Q!Q!Q!Q!Q!Q!l## ",
"# c$d$[$8!G$e$o #!f$, U g$z#h$$#$#$#$#P$i$^!* j$s!_!U , f$*$o e$G$U$[$d$c$k$t l$m$n$o$p$$#$#$#$#q$r$P!Q!Q!Q!Q!Q!Q!Q!Q!Q!Q!Q!Q!# ",
"# k$c$L$D s$Y p X I!@ f$+$t$&$u$$#$#B$v$q#w$? x$y$+$f$@ I!X p Y 8!D d$c$k$z${$|$=!}$~$y# %$#$#!%#%P!Q!Q!Q!Q!Q!Q!Q!Q!Q!Q!Q!Q!Q!# ",
"# t k$&!L$9!$%q G$e$%%I!#!7!&%'%(%)%O$*%n , Z$f$7!#!I!%%e$G$K!Z +%L$c$k$,%{$<!-%.%0%1%2%3%4%5%6%P!Q!Q!Q!Q!Q!Q!Q!Q!Q!Q!Q!Q!Q!Q!# ",
"# {$t ^ &!r [ 7%8!K!G$p X 8%# L#9%$#:%@ *$#!W I!A X J!G$K!8!7%[ r &!^ t {$<!-%d!+!;%<%# =%>%?%@%Q!Q!Q!Q!Q!Q!Q!Q!Q!Q!Q!Q!Q!Q!Q!# ",
"# |$l$]$A%B%C%L$9!7%Z q D%# l!##$#$#$#E%X F%e$p G%Y K!s$7%9!L$:!B%A%H%{$<!-%d!+!?!<%# I%%#$#$#J%S#Q!Q!Q!Q!Q!Q!Q!Q!Q!Q!Q!Q!Q!Q!# ",
"# =!m$K%;!,%L%M$:!L$M%N%# l!##$#$#$#$#$#O%Y K!C 8!$![$9!L$:!M$k$P%;!u )!Q%.%+!?!<%# I%%#$#$#$#$#J%S#Q!Q!Q!Q!Q!Q!Q!Q!Q!Q!Q!Q!Q!# ",
"# R%*!v S%{$H%'!T%M$U%# l!##$#$#$#$#$#$#$#V%[$+%M%%!E C%M$T%'!H%{$S%v W%X%+!?!<%# I%%#$#$#$#$#$#$#J%S#Q!Q!Q!Q!Q!Q!Q!Q!Q!Q!Q!l## ",
"# Y%>!Z%-%)!L![%H%]%# l!##$#$#$#$#$#$#$#$#$#^%_%C%&!s ^ `%t [%L!)!M!Z%>!e!a%<%# I%%#$#$#$#$#$#$#$#$#J%S#Q!Q!Q!Q!Q!Q!Q!Q!Q!Q!S$# ",
"# b%O!c%X%*!d%)!L!H # e%$#$#$#$#$#$#$#$#$#$#$#f%g%`%t ;!{$L!|$d%*!.%c%O!h%i%# I%%#$#$#$#$#$#$#$#$#$#$#j%Q!Q!Q!Q!Q!Q!Q!Q!Q!Q!E$# ",
"# g!f!;%e!>!.%*!k%# :#$#$#$#$#$#$#$#$#$#$#$#$#$#l%{$u m%m$M!*!d!>!e!?!f!n%# I%%#$#$#$#$#$#$#$#$#$#$#$#$#W#Q!Q!Q!Q!Q!Q!Q!Q!Q!g!# ",
"  S!Q!@!}!?!o%p%q%# ##$#$#$#$#$#$#$#$#$#$#$#$#$#$#r%d%Q%s%.%t%u%v%}!@!g!# I%%#$#$#$#$#$#$#$#$#$#$#$#$#$#J%Q!Q!Q!Q!Q!Q!Q!Q!Q!S!  ",
"  # l#Q!-#@!}!?!w%R#$#$#$#$#$#$#$#$#$#$#$#$#$#$#$#$#x%>!+!e!?!h%y%-#g!# I%%#$#$#$#$#$#$#$#$#$#$#$#$#$#$#$#J#Q!Q!Q!Q!Q!Q!Q!l##   ",
"  # }#Q!Q!Q!-#@!z%:#$#$#$#$#$#$#$#$#$#$#$#$#$#$#$#$#$#{%1%f!@!-#Q!g!# I%%#$#$#$#$#$#$#$#$#$#$#$#$#$#$#$#$#7#Q!Q!Q!Q!Q!Q!Q!}##   ",
"  # N#Q!Q!Q!Q!Q!# x!$#$#$#$#$#$#$#$#$#$#$#$#$#$#$#$#$#$#|%Q!Q!Q!g!# I%%#$#$#$#$#$#$#$#$#$#$#$#$#$#$#$#$#$#]#Q!Q!Q!Q!Q!Q!Q!s##   ",
"    # l#Q!Q!Q!Q!s#}%$#$#$#$#$#$#$#$#$#$#$#$#$#$#$#$#$#$#$#7#Q!g!# I%%#$#$#$#$#$#$#$#$#$#$#$#$#$#$#$#$#$#$#]#Q!Q!Q!Q!Q!Q!l##     ",
"    # X#Q!Q!Q!Q!N#g#$#$#$#$#$#$#$#$#$#$#$#$#$#$#$#$#$#$#$#$#~%# I%%#$#$#$#$#$#$#$#$#$#$#$#$#$#$#$#$#$#$#$#]#Q!Q!Q!Q!Q!Q!X##     ",
"      B!R!Q!Q!Q!E$ &$#$#$#$#$#$#$#$#$#$#$#$#$#$#$#$#$#$#$#$#$#x!%#$#$#$#$#$#$#$#$#$#$#$#$#$#$#$#$#$#$#$#$#7#Q!Q!Q!Q!Q!R!B!      ",
"      # X#Q!Q!Q!R! $$#$#$#$#$#$#$#$#$#$#$#$#$#$#$#$#$#$#$#$#$#!&$#$#$#$#$#$#$#$#$#$#$#$#$#$#$#$#$#$#$#$#$##&Q!Q!Q!Q!Q!X##       ",
"        B!R!Q!Q!Q!X $&$#$#$#$#$#$#$#$#$#$#$#$#$#$#$#$#$#$#$#%&&&'&$#$#$#$#$#$#$#$#$#$#$#$#$#$#$#$#$#$#$#(&h%Q!Q!Q!Q!R!B!        ",
"        # N#Q!Q!Q!)&*&$#$#$#$#$#$#$#$#$#$#$#$#$#$#$#$#$#$#+&,&-&b#.&$#$#$#$#$#$#$#$#$#$#$#$#$#$#$#$#$#$#0&Q!Q!Q!Q!Q!N##         ",
"          # A!Q!Q!Q!1$1&$#$#$#$#$#$#$#$#$#$#$#$#$#$#$#$#Q$2&b$Q!7!U!I$$#$#$#$#$#$#$#$#$#$#$#$#$#$#$#$#3&4&Q!Q!Q!Q!A!#           ",
"          # B!R!Q!Q!%!H$k#$#$#$#$#$#$#$#$#$#$#$#$#$#$#`$5&b$Q!Q!Q!W { W$$#$#$#$#$#$#$#$#$#$#$#$#$#$#6&7&b$Q!Q!Q!R!B!#           ",
"            # S!Q!Q!Q!Y$V$r#$#$#$#$#$#$#$#$#$#$#$#8&9&:&P!Q!Q!Q!Q!Q!o ;&<&=&$#$#$#$#$#$#$#$#$#$#$#>&?&@&Q!Q!Q!Q!S!#             ",
"              # g!Q!Q!h%A&z#B&C&$#$#$#$#$#$#$#D&-$E&#%P!Q!Q!Q!Q!Q!Q!Q!%%&$F&2$$#$#$#$#$#$#$#$#G&q$x#H&Q!Q!Q!Q!g!#               ",
"                # g!Q!Q!h%I&&$'%J&K&B$L&M&N&O&P&7$:&P!Q!Q!Q!Q!Q!Q!Q!Q!Q!P%Q&9$R&S&T&M&U&U&V&W&.$X&4&Q!Q!Q!Q!g!#                 ",
"                  # g!Q!Q!Q!P%Y&Z&A$[&v$i$y#K$]&^&Q!Q!Q!Q!Q!Q!Q!Q!Q!Q!Q!Q!X%_&A$O$_$o$y#3%`&7$a&o%Q!Q!Q!Q!g!#                   ",
"                    # g!Q!Q!Q!Q!X%b&c$c&d&e&c%Q!Q!Q!Q!Q!Q!Q!Q!Q!Q!Q!Q!Q!Q!Q!Q!f&g&h&i&j&k&(!?!Q!Q!Q!Q!Q!g!#                     ",
"                      # S!R!Q!Q!Q!Q!Q!Q!Q!Q!Q!Q!Q!Q!Q!Q!Q!Q!Q!Q!Q!Q!Q!Q!Q!Q!Q!Q!Q!Q!Q!Q!Q!Q!Q!Q!Q!Q!R!S!#                       ",
"                        # B!A!Q!Q!Q!Q!Q!Q!Q!Q!Q!Q!Q!Q!Q!Q!Q!Q!Q!Q!Q!Q!Q!Q!Q!Q!Q!Q!Q!Q!Q!Q!Q!Q!Q!Q!A!B!#                         ",
"                          # # N#R!Q!Q!Q!Q!Q!Q!Q!Q!Q!Q!Q!Q!Q!Q!Q!Q!Q!Q!Q!Q!Q!Q!Q!Q!Q!Q!Q!Q!Q!Q!R!N## #                           ",
"                              # B!X#R!Q!Q!Q!Q!Q!Q!Q!Q!Q!Q!Q!Q!Q!Q!Q!Q!Q!Q!Q!Q!Q!Q!Q!Q!Q!Q!R!X#B!#                               ",
"                                  # B!X#l#Q!Q!Q!Q!Q!Q!Q!Q!Q!Q!Q!Q!Q!Q!Q!Q!Q!Q!Q!Q!Q!Q!l#X#B!#                                   ",
"                                      # # s#}#l#Q!Q!Q!Q!Q!Q!Q!Q!Q!Q!Q!Q!Q!Q!Q!Q!l#}#s## #                                       ",
"                                          # # # S!g!E$S$l#Q!Q!Q!Q!Q!Q!l#S$E$g!S!# # #                                           ",
"                                                  # # # # # # # # # # # # # #                                                   "};