/* XPM */ 
static const unsigned char * db2first_xpm[] = {
"32 32 66 1",
" 	c None",
"!	c black",
"#	c #B5B6BD",
"$	c #8C8A9C",
"%	c #6B6D8C",
"&	c #52557B",
"'	c #393863",
"(	c #42416B",
")	c #9492A5",
"*	c #A5A6AD",
"+	c #4A4973",
",	c #7B7994",
"-	c #9C9EAD",
".	c #ADAEB5",
"0	c #5A5D7B",
"1	c #636584",
"2	c #9496AD",
"3	c #D6D3EF",
"4	c #313063",
"5	c #9C9ECE",
"6	c #ADAAD6",
"7	c #7B7DAD",
"8	c #C6BEDE",
"9	c #DEDBF7",
":	c #DED7F7",
";	c #CECBDE",
"<	c #B5B2D6",
"=	c #A59ECE",
">	c #9C9ACE",
"?	c #DEDBEF",
"@	c #CEC3E7",
"A	c #B5AEDE",
"B	c #D6D7EF",
"C	c #C6BEE7",
"D	c #E7E3F7",
"E	c #848294",
"F	c #D6CFEF",
"G	c #CECBD6",
"H	c #737194",
"I	c #C6C3E7",
"J	c #E7DFF7",
"K	c #DEDFF7",
"L	c #CECBEF",
"M	c #CEC7EF",
"N	c #C6C7EF",
"O	c #DED7EF",
"P	c #CECFEF",
"Q	c #D6D7F7",
"R	c #BDBAE7",
"S	c #CEC7E7",
"T	c #C6C7E7",
"U	c #BDB6DE",
"V	c #BDBEE7",
"W	c #B5B2DE",
"X	c #BDB6E7",
"Y	c #CECBE7",
"Z	c #63658C",
"[	c #ADAADE",
"]	c #B5B6DE",
"^	c #B5B6E7",
"_	c #A5A6D6",
"`	c #ADAEDE",
"a	c #ADA6DE",
"b	c #A5A2D6",
"c	c #C6BADE",
"d	c #A59ED6",
"                                ",
"                   #$%&&'(&&%)  ",
"                  *'+,--#.-),(+#",
"                  012333333332(,",
"                  &4+,)----)%(4,",
"                  &56,&&&&&&,74,",
"                  &56839:;<=>74,",
"             .&&&&'5683:3?@A574,",
"             10---+568333BC6574,",
"            -'#DD30E6833F3C6574,",
"            +,3333GH2G--IB86574,",
"           -4444444444444B86574,",
"           -&DDJK9::33FLMB86574,",
"       .&&&+&DJJ9::33FLMN386574,",
"       &%--E&JJ99:33FLLMIF86574,",
"      )(#D3-&J99:O3FLLMICP86574,",
"      ($333-&99:Q3FLLMIICP86574,",
"     -44444419::3FFLMIICRS86>74,",
"     -&DDJJJ9:O3FFFMNICRRT86574,",
" -&&&+&DDJJ99:33FLMNICRRUI86574,",
" +,--E&DJJ99:33FLLSICVRUWT86574,",
"E+DD3-&JJ99:33FLLMICVRXWWI86574,",
"'-333-&J99:Q3FPLMIICRXWWAY86574,",
"Z44444199:Q3FPLMIICRXWWA[S86574,",
"4DDDJJK9::3FFLMIICRX]WA[[Y86574,",
"4DDDJK99:33FLMNICRX^WA[[_I86574,",
"4DDJJ99:33FLMSICRRXWA`[abIc6>74,",
"4DJJ99:33FLLMICRRXWW`[abbI86574,",
"4JJ99:Q3FPLMIIVRXWW`[a_bdI865%'-",
"4444444444444444444444444444(1* ",
"                                ",
"                                "};